<svg width="600" height="600" viewBox="0 0 600 600" fill="none" xmlns="http://www.w3.org/2000/svg">
<g opacity="0.03">
<path d="M532.137 136.714C520.195 115.605 495.758 85.2202 450.091 57.1654C449.733 56.9449 449.267 56.9449 448.912 57.1654C403.251 85.2202 378.809 114.681 366.864 135.79C352.815 160.617 360.826 190.612 386.374 203.295C393.036 206.6 397.878 207.035 403.622 207.035C403.622 207.035 405.029 206.987 407.343 206.642C417.61 205.107 427.049 200.118 434.352 192.741L435.391 191.692C436.91 190.158 439.515 191.363 439.313 193.514C438.23 205.165 436.123 222.643 427.208 233.76C424.476 237.167 426.713 242.198 431.082 242.198H467.95C472.306 242.198 474.528 237.18 471.798 233.782C462.772 222.544 460.732 204.794 459.63 193.14C459.457 191.321 461.701 190.34 462.931 191.692C469.299 198.705 477.513 203.858 486.674 206.268C491.772 207.61 495.372 207.962 495.372 207.962C501.116 207.962 505.961 207.527 512.619 204.222C538.175 191.536 546.185 161.541 532.137 136.714Z" fill="black"/>
<path fill-rule="evenodd" clip-rule="evenodd" d="M440.371 536.253L386.963 456.554C381.691 451.27 381.679 442.728 386.928 437.456L440.069 357.943C445.317 352.67 453.872 352.694 459.179 357.966L512.028 437.688C517.312 442.961 517.324 451.515 512.063 456.787L459.481 536.277C459.481 536.277 445.667 541.526 440.371 536.253Z" fill="black"/>
<path d="M189.768 67C173.826 67 159.31 74.3764 149.856 86.2952C140.422 74.4026 125.919 67 109.944 67C81.8531 67 59 89.8531 59 117.943C59 150.381 79.5987 179.06 103.29 201.01C124.736 220.88 145.892 232.711 146.782 233.204C147.738 233.735 148.797 234 149.856 234C150.915 234 151.974 233.735 152.93 233.204C153.82 232.711 174.977 220.879 196.422 201.01C220.125 179.05 240.712 150.372 240.712 117.943C240.712 89.8531 217.859 67 189.768 67Z" fill="black"/>
<path d="M187.75 498.295C192.773 498.295 197.747 497.308 202.388 495.39C207.028 493.473 211.245 490.662 214.797 487.118C218.349 483.574 221.166 479.368 223.088 474.738C225.011 470.108 226 465.146 226 460.134C226 455.123 225.011 450.161 223.088 445.531C221.166 440.901 218.349 436.694 214.797 433.15C211.245 429.607 207.028 426.796 202.388 424.878C197.747 422.96 192.773 421.973 187.75 421.973C181.071 421.972 174.51 423.727 168.727 427.062H167.656C172.973 423.924 177.38 419.459 180.441 414.106C183.502 408.753 185.112 402.696 185.113 396.533C185.113 391.867 184.192 387.246 182.402 382.935C180.612 378.624 177.989 374.707 174.682 371.407C171.374 368.108 167.448 365.49 163.127 363.705C158.806 361.919 154.175 361 149.497 361C144.82 361 140.189 361.919 135.868 363.705C131.547 365.49 127.62 368.108 124.313 371.407C121.006 374.707 118.383 378.624 116.593 382.935C114.803 387.246 113.882 391.867 113.882 396.533C113.883 402.696 115.493 408.753 118.554 414.106C121.615 419.459 126.022 423.924 131.339 427.062H130.278C124.668 423.841 118.186 421.973 111.25 421.973C101.105 421.973 91.3764 425.994 84.2032 433.15C77.0299 440.307 73 450.013 73 460.134C73 470.255 77.0299 479.961 84.2032 487.118C91.3764 494.275 101.105 498.295 111.25 498.295C116.471 498.296 121.637 497.227 126.427 495.154C131.216 493.082 135.529 490.05 139.096 486.246C137 507.215 114.845 523.736 93.4 523.736H95.95C93.9211 523.736 91.9753 524.54 90.5406 525.971C89.106 527.402 88.3 529.344 88.3 531.368C88.3 533.392 89.106 535.333 90.5406 536.765C91.9753 538.196 93.9211 539 95.95 539H203.05C205.079 539 207.025 538.196 208.459 536.765C209.894 535.333 210.7 533.392 210.7 531.368C210.7 529.344 209.894 527.402 208.459 525.971C207.025 524.54 205.079 523.736 203.05 523.736H205.6C184.154 523.736 162 507.209 159.909 486.241C163.474 490.047 167.785 493.08 172.575 495.154C177.364 497.227 182.529 498.296 187.75 498.295Z" fill="black"/>
</g>
</svg>
