<svg width="297" height="438" viewBox="0 0 297 438" fill="none" xmlns="http://www.w3.org/2000/svg">
<path d="M11.5 2.5L2.5 10.5V426L10.5 435H286L294.5 426V12L286 2.5H11.5Z" fill="#592362" fill-opacity="0.3"/>
<path d="M291.493 12.6345V424.939C291.493 425.189 291.353 425.42 291.128 425.533C288.408 426.903 286.156 429.155 284.788 431.873C284.676 432.099 284.444 432.24 284.192 432.24H12.6347C12.3827 432.24 12.1533 432.099 12.0387 431.873C10.672 429.155 8.41999 426.903 5.69999 425.533C5.47599 425.42 5.33333 425.189 5.33333 424.939V12.6345C5.33333 12.3825 5.47599 12.1519 5.69999 12.0386C8.41999 10.6706 10.672 8.41987 12.0387 5.7012C12.1533 5.47587 12.3827 5.3332 12.6347 5.3332H284.192C284.444 5.3332 284.676 5.47587 284.788 5.7012C286.156 8.41987 288.409 10.6706 291.128 12.0386C291.353 12.1519 291.493 12.3825 291.493 12.6345ZM288.637 -0.000135111H8.18799C7.86399 4.36653 4.36667 7.86253 0 8.1892V429.384C4.36667 429.711 7.86399 433.208 8.18799 437.573H288.637C288.965 433.208 292.461 429.711 296.827 429.384V8.1892C292.461 7.86253 288.965 4.36653 288.637 -0.000135111Z" fill="#592362"/>
<path d="M224.695 235.019C242.259 247.071 257.014 240.059 262.545 236.486C269.91 231.723 273.667 225.317 273.046 221.873C272.609 219.443 271.555 217.679 269.917 216.626C266.993 214.746 263.099 215.71 263.059 215.719C262.786 215.787 262.502 215.681 262.343 215.45C262.186 215.219 262.189 214.914 262.35 214.686C268.581 205.946 267.993 195.749 260.778 187.409C254.891 180.605 244.586 175.957 236.271 180.23C225.565 185.731 224.309 194.57 224.563 199.55C224.998 197.973 225.658 196.079 226.657 194.205C229.835 188.237 234.886 185.43 241.25 186.079C247.874 186.759 253.197 190.582 255.853 196.569C259.217 204.146 257.697 213.473 251.789 221.517C248.851 225.518 242.633 228.542 235.595 228.542C233.043 228.543 230.383 228.145 227.73 227.251C220.415 224.786 208.55 216.862 207.382 191.481C205.847 201.273 205.415 221.787 224.695 235.019Z" fill="#592362"/>
<path d="M23.7749 221.872C23.1536 225.316 26.9109 231.724 34.2749 236.486C39.8029 240.059 54.5602 247.074 72.1256 235.019C91.4069 221.787 90.9722 201.271 89.4389 191.48C88.2709 216.862 76.4056 224.787 69.0896 227.251C66.4389 228.144 63.7776 228.542 61.2256 228.542C54.1869 228.543 47.9696 225.519 45.0309 221.516C39.1242 213.472 37.6056 204.147 40.9682 196.568C43.6242 190.582 48.9469 186.759 55.5709 186.079C61.9376 185.428 66.9842 188.236 70.1642 194.204C71.1629 196.08 71.8229 197.974 72.2562 199.551C72.5122 194.57 71.2549 185.731 60.5496 180.23C52.2362 175.956 41.9269 180.606 36.0429 187.408C28.8282 195.75 28.2402 205.947 34.4696 214.687C34.6322 214.915 34.6349 215.219 34.4762 215.451C34.3176 215.68 34.0336 215.787 33.7602 215.719C33.7416 215.714 32.7296 215.464 31.3562 215.464C30.0229 215.464 28.3456 215.7 26.9042 216.626C25.2656 217.679 24.2122 219.444 23.7749 221.872Z" fill="#592362"/>
<path d="M77.3332 136.957C80.8052 136.743 83.3759 133.666 83.4012 133.635C83.5306 133.478 83.7212 133.393 83.9159 133.393C83.9892 133.393 84.0652 133.403 84.1386 133.429C84.4012 133.522 84.5799 133.77 84.5826 134.05C84.7252 144.782 91.2266 152.659 101.976 155.122C110.741 157.13 121.805 154.789 125.987 146.427C131.369 135.661 127.157 127.787 124.008 123.922C124.591 125.451 125.177 127.369 125.48 129.473C126.445 136.166 124.036 141.414 118.513 144.651C115.589 146.366 112.459 147.223 109.339 147.223C106.327 147.223 103.325 146.425 100.533 144.822C93.3439 140.698 89.0546 132.278 89.0652 122.298C89.0719 115.533 95.0639 106.633 105.083 103.453C112.437 101.114 126.693 100.493 142.639 120.275C138.085 111.467 126.299 94.6405 102.937 95.3912C81.6439 96.0499 73.8879 110.43 71.5412 116.583C68.4172 124.775 69.1719 132.165 71.7092 134.575C73.4986 136.274 75.3999 137.073 77.3332 136.957Z" fill="#592362"/>
<path d="M105.484 104.723C96.0496 107.719 90.4029 116.012 90.3989 122.3C90.3883 131.795 94.4269 139.781 101.198 143.667C106.454 146.681 112.518 146.62 117.839 143.501C126.256 138.567 124.815 130.008 123.011 125.003C123.055 127.365 122.694 130.271 121.111 132.725C119.484 135.245 116.876 136.812 113.356 137.383C106.838 138.437 99.9083 134.111 97.8989 127.735C95.7989 121.077 99.6843 114.619 108.292 110.457C118.852 105.355 128.63 109.419 135.599 114.52C122.674 102.119 111.587 102.784 105.484 104.723Z" fill="#592362"/>
<path d="M193.883 95.3912C170.493 94.6379 158.709 111.489 154.171 120.291C170.119 100.494 184.379 101.114 191.739 103.451C201.756 106.633 207.749 115.531 207.755 122.298C207.765 132.278 203.476 140.698 196.287 144.822C193.495 146.423 190.493 147.223 187.481 147.223C184.361 147.223 181.231 146.365 178.307 144.651C172.784 141.414 170.375 136.166 171.34 129.473C171.643 127.367 172.229 125.45 172.812 123.921C169.663 127.787 165.451 135.661 170.833 146.426C175.015 154.789 186.077 157.13 194.844 155.122C205.593 152.659 212.095 144.781 212.237 134.05C212.241 133.77 212.419 133.522 212.683 133.429C212.948 133.335 213.24 133.418 213.419 133.635C213.444 133.666 216.016 136.743 219.487 136.957C221.421 137.075 223.321 136.274 225.111 134.575C227.648 132.165 228.405 124.775 225.279 116.583C222.932 110.43 215.176 96.0499 193.883 95.3912Z" fill="#592362"/>
<path d="M178.982 143.502C184.299 146.618 190.366 146.681 195.622 143.666C202.394 139.782 206.432 131.795 206.422 122.299C206.416 116.013 200.772 107.719 191.335 104.723C185.236 102.785 174.151 102.117 161.224 114.515C168.192 109.417 177.968 105.353 188.527 110.458C197.135 114.618 201.022 121.078 198.922 127.735C196.911 134.11 189.98 138.434 183.463 137.383C179.944 136.811 177.336 135.246 175.711 132.726C174.126 130.271 173.766 127.365 173.81 125.002C172.006 130.009 170.564 138.566 178.982 143.502Z" fill="#592362"/>
<path d="M68.9089 103.658C64.5356 105.458 48.6969 110.943 41.1809 99.6469C40.0903 102.663 38.1036 110.616 45.4223 114.831C45.6889 114.986 45.8156 115.302 45.7276 115.596C45.7049 115.678 43.3969 123.828 47.8009 130.591C50.7543 135.123 56.0143 138.044 63.4476 139.284C60.6796 134.939 52.5876 120.735 60.5489 114.366C66.7289 109.423 68.4369 105.474 68.9089 103.658Z" fill="#592362"/>
<path d="M255.642 99.6452C248.134 110.932 232.317 105.468 227.925 103.664C228.415 105.496 230.147 109.468 236.273 114.366C244.233 120.736 236.139 134.94 233.373 139.285C240.813 138.044 246.075 135.118 249.027 130.58C253.433 123.804 251.115 115.678 251.093 115.597C251.005 115.302 251.133 114.985 251.399 114.832C258.731 110.608 256.734 102.658 255.642 99.6452Z" fill="#592362"/>
<path d="M262.845 23.6465C259.924 22.9852 256.801 23.6585 253.554 25.6158C253.569 25.7025 253.564 25.7865 253.582 25.8745C253.68 25.9718 253.833 26.1185 254.033 26.2945C255.07 26.8812 256.094 27.5238 257.104 28.2238C258.665 28.8465 260.552 29.0532 262.416 27.8732C264.721 26.4118 266.712 26.2892 268.222 26.6105C266.977 25.4438 265.165 24.1718 262.845 23.6465Z" fill="#592362"/>
<path d="M224.695 37.6232C205.391 50.8725 205.839 71.3939 207.382 81.1779C208.545 55.7845 220.415 47.8579 227.731 45.3925C237.69 42.0379 247.786 45.6725 251.789 51.1272C257.697 59.1712 259.217 68.4965 255.853 76.0739C253.197 82.0619 247.874 85.8845 241.25 86.5645C234.883 87.2165 229.834 84.4059 226.657 78.4392C225.658 76.5632 224.998 74.6699 224.563 73.0925C224.309 78.0725 225.565 86.9125 236.271 92.4125C244.583 96.6872 254.893 92.0365 260.778 85.2339C267.993 76.8939 268.581 66.6965 262.35 57.9565C262.189 57.7285 262.186 57.4245 262.343 57.1925C262.502 56.9619 262.785 56.8552 263.059 56.9245C263.099 56.9339 266.991 57.8965 269.917 56.0165C271.555 54.9645 272.609 53.1992 273.046 50.7699C273.667 47.3272 269.91 40.9192 262.546 36.1579C257.015 32.5832 242.259 25.5672 224.695 37.6232Z" fill="#592362"/>
<path d="M88.1443 40.9536C91.9936 41.4603 95.9376 40.211 99.8803 37.2736C99.839 37.1096 99.803 36.947 99.7496 36.7843C98.783 35.979 92.9963 31.491 88.115 35.2563C85.1096 37.5736 82.403 37.7803 80.4243 37.391C82.1603 38.843 84.8056 40.515 88.1443 40.9536Z" fill="#592362"/>
<path d="M263.139 22.3459C265.417 22.8605 267.229 23.9925 268.571 25.1299C267.181 22.6432 264.85 19.7485 261.405 19.3659C258.458 19.0379 256.065 19.7312 254.675 21.3179C253.993 22.0979 253.618 23.0672 253.51 24.1005C256.834 22.2525 260.069 21.6525 263.139 22.3459Z" fill="#592362"/>
<path d="M239.772 12.285C241.939 11.4224 244.072 11.329 245.82 11.5064C243.267 10.2437 239.707 9.17569 236.653 10.809C234.033 12.209 232.456 14.1317 232.208 16.2264C232.085 17.257 232.325 18.2664 232.823 19.1797C234.517 15.7744 236.847 13.4504 239.772 12.285Z" fill="#592362"/>
<path d="M23.7749 50.7703C24.2136 53.2023 25.2696 54.9689 26.9122 56.0209C29.8496 57.9036 33.7216 56.9343 33.7602 56.9249C33.8149 56.9103 33.8709 56.9036 33.9269 56.9036C34.1429 56.9036 34.3496 57.0089 34.4762 57.1916C34.6349 57.4236 34.6336 57.7289 34.4696 57.9569C28.2402 66.6969 28.8282 76.8943 36.0429 85.2343C41.9269 92.0369 52.2376 96.6889 60.5496 92.4129C71.0336 87.0249 72.4029 78.2369 72.2216 73.2183C71.7869 74.7703 71.1362 76.6129 70.1642 78.4383C66.9842 84.4076 61.9389 87.2169 55.5709 86.5636C48.9469 85.8836 43.6242 82.0609 40.9682 76.0743C37.6056 68.4969 39.1242 59.1703 45.0309 51.1276C49.0349 45.6743 59.1309 42.0369 69.0882 45.3929C76.4042 47.8569 88.2709 55.7809 89.4389 81.1623C90.9722 71.3716 91.4069 50.8569 72.1256 37.6236C54.5589 25.5689 39.8029 32.5823 34.2749 36.1583C26.9109 40.9196 23.1536 47.3263 23.7749 50.7703Z" fill="#592362"/>
<path d="M211.242 16.2099C209.189 18.3899 208.181 21.4246 208.218 25.2152C208.301 25.2472 208.372 25.2952 208.454 25.3232C209.5 25.0499 214.814 23.4246 214.662 18.7299C214.576 15.9992 215.482 14.2232 216.525 13.0846C214.888 13.5659 212.874 14.4779 211.242 16.2099Z" fill="#592362"/>
<path d="M89.8384 42.3981C89.2144 42.3981 88.5917 42.3581 87.9717 42.2754C84.6304 41.8368 81.9317 40.2661 80.0491 38.7914C82.0451 41.9648 85.5771 46.0981 90.4864 46.1874C94.3051 46.2581 97.2917 45.0794 98.8931 42.8688C99.7584 41.6754 100.16 40.2461 100.098 38.7608C96.6824 41.1701 93.2437 42.3981 89.8384 42.3981Z" fill="#592362"/>
<path d="M197.625 36.7847C197.571 36.9474 197.537 37.1101 197.494 37.2727C201.438 40.2114 205.385 41.4594 209.23 40.9541C212.57 40.5154 215.215 38.8421 216.951 37.3901C214.974 37.7807 212.267 37.5741 209.261 35.2567C206.719 33.2967 203.939 33.5767 201.715 34.4061C200.925 34.7807 200.153 35.1581 199.395 35.5367C198.525 36.0647 197.889 36.5634 197.625 36.7847Z" fill="#592362"/>
<path d="M209.404 42.276C208.782 42.3587 208.16 42.3987 207.538 42.3987C204.132 42.3987 200.693 41.1694 197.276 38.7614C197.214 40.2454 197.617 41.676 198.484 42.8694C200.085 45.08 203.078 46.2507 206.889 46.188C211.809 46.0987 215.338 41.9627 217.332 38.788C215.449 40.264 212.749 41.8374 209.404 42.276Z" fill="#592362"/>
<path d="M63.4921 20.5994C63.5561 20.5394 63.5975 20.4674 63.6588 20.4048C62.0895 16.9541 59.8935 14.6314 57.1121 13.5234C54.9028 12.6448 52.6881 12.6701 51.0015 12.9261C52.4295 13.5168 54.0015 14.7434 55.0761 17.2528C56.9095 21.5274 62.4548 20.7808 63.4921 20.5994Z" fill="#592362"/>
<path d="M87.1041 15.296C89.2628 17.5894 90.3894 20.6814 90.4841 24.4854C91.3201 23.8667 91.9654 23.0534 92.2921 22.0667C92.9521 20.0654 92.3361 17.6547 90.5548 15.2787C88.4708 12.4987 84.7921 11.9627 81.9441 12.0294C83.6054 12.608 85.5028 13.5947 87.1041 15.296Z" fill="#592362"/>
<path d="M88.9219 25.3223C89.0045 25.2943 89.0739 25.2463 89.1565 25.2156C89.1939 21.4236 88.1859 18.3903 86.1325 16.2103C84.5032 14.4769 82.4872 13.5649 80.8499 13.0836C81.8939 14.2223 82.8005 15.9996 82.7125 18.7289C82.5632 23.3783 87.9045 25.0476 88.9219 25.3223Z" fill="#592362"/>
<path d="M104.027 32.3438C107.457 28.8198 109.213 25.0718 109.217 21.1918C109.221 17.8238 107.909 14.9824 106.698 13.0704C106.825 15.0838 106.266 17.7384 103.571 20.4144C99.2432 24.7158 102.921 31.1171 103.563 32.1531C103.717 32.2264 103.873 32.2824 104.027 32.3438Z" fill="#592362"/>
<path d="M45.142 30.2434C67.91 16.6581 98.2767 32.9781 110.615 40.8848C111.47 40.4034 112.387 39.9421 113.365 39.5208C100.339 30.9381 62.0913 9.43277 36.8687 33.1514C39.0887 32.0434 41.8873 30.9394 45.142 30.2434Z" fill="#592362"/>
<path d="M110.549 21.1937C110.545 25.239 108.823 29.1217 105.467 32.7537C106.933 33.011 108.408 32.8004 109.705 32.1004C112.107 30.8017 113.667 27.9964 114.099 24.2004C114.653 19.311 111.017 15.2697 108.131 12.8764C109.348 14.9364 110.553 17.819 110.549 21.1937Z" fill="#592362"/>
<path d="M57.6053 12.285C60.5293 13.4504 62.8573 15.7744 64.5533 19.1797C65.0493 18.2664 65.2907 17.257 65.1667 16.225C64.9187 14.1317 63.34 12.2077 60.7213 10.809C57.6653 9.17435 54.1053 10.2437 51.552 11.5077C53.3013 11.329 55.436 11.421 57.6053 12.285Z" fill="#592362"/>
<path d="M191.909 32.7547C188.553 29.1214 186.829 25.24 186.825 21.1934C186.824 17.8227 188.025 14.9427 189.24 12.884C186.356 15.28 182.722 19.3214 183.277 24.2C183.709 27.996 185.269 30.8014 187.67 32.1C188.969 32.8014 190.444 33.012 191.909 32.7547Z" fill="#592362"/>
<path d="M130.958 46.2577C132.224 46.1231 133.438 45.6591 134.474 44.9151C136.272 43.6191 137.377 41.6071 137.508 39.3938C137.553 38.7578 138.713 23.9884 148.16 20.1977C148.32 20.1337 148.497 20.1337 148.657 20.1977C158.194 24.0297 159.302 39.2351 159.313 39.3897C159.442 41.6071 160.548 43.6191 162.348 44.9151C163.381 45.6591 164.597 46.1231 165.862 46.2577C166.136 46.2857 166.362 46.4804 166.434 46.7458C166.506 47.0111 166.409 47.2937 166.188 47.4564C164.108 48.9924 162.785 50.2324 162.429 50.5764C160.033 52.8884 159.494 56.5324 161.122 59.4364C161.773 60.5991 162.729 61.5631 163.888 62.2231C164.104 62.3471 164.233 62.5817 164.222 62.8311C164.212 63.0804 164.064 63.3031 163.837 63.4071C158.05 66.0871 153.056 71.1311 148.992 78.4017C148.876 78.6124 148.652 78.7431 148.41 78.7431C148.168 78.7431 147.945 78.6124 147.828 78.4017C143.765 71.1324 138.77 66.0884 132.984 63.4071C132.757 63.3031 132.608 63.0804 132.597 62.8311C132.588 62.5817 132.716 62.3471 132.932 62.2231C134.09 61.5631 135.045 60.6004 135.697 59.4377C137.325 56.5324 136.788 52.8884 134.392 50.5764C134.036 50.2324 132.712 48.9924 130.633 47.4564C130.412 47.2937 130.314 47.0111 130.385 46.7458C130.458 46.4804 130.685 46.2857 130.958 46.2577ZM129.762 55.3738C129.981 55.5844 130.029 55.9151 129.88 56.1791C129.733 56.4431 129.428 56.5737 129.132 56.4991C115.485 52.9631 105.706 59.0031 101.105 65.8378C97.3782 71.3737 96.7782 77.6497 99.6102 81.4551C104.464 87.9751 112.361 87.9977 116.46 87.4844C111.756 85.4764 108.226 80.6271 108.602 76.0831C108.809 73.6084 110.596 67.8537 122.744 67.8537C139.945 67.8537 146.489 90.5271 148.41 99.5244C150.33 90.5271 156.874 67.8537 174.077 67.8537C186.225 67.8537 188.012 73.6084 188.216 76.0817C188.594 80.6271 185.065 85.4764 180.361 87.4844C184.461 87.9977 192.357 87.9764 197.209 81.4551C200.041 77.6497 199.44 71.3724 195.714 65.8364C191.116 59.0017 181.338 52.9617 167.689 56.4991C167.394 56.5751 167.088 56.4431 166.938 56.1791C166.792 55.9151 166.84 55.5844 167.058 55.3738C167.557 54.8911 178.826 44.2044 191.504 46.4657C188.106 43.1977 179.14 36.2778 166.806 39.6084C166.614 39.6604 166.406 39.6231 166.244 39.5058C166.081 39.3884 165.978 39.2044 165.966 39.0044C165.954 38.7818 164.469 16.8324 148.41 13.1564C132.35 16.8324 130.866 38.7818 130.853 39.0044C130.841 39.2044 130.74 39.3884 130.577 39.5058C130.414 39.6231 130.209 39.6604 130.014 39.6084C117.682 36.2751 108.714 43.1977 105.317 46.4657C117.993 44.1977 129.262 54.8924 129.762 55.3738Z" fill="#592362"/>
<path d="M190.678 13.0704C189.468 14.9811 188.154 17.8238 188.158 21.1918C188.162 25.0718 189.918 28.8211 193.348 32.3438C193.504 32.2811 193.66 32.2251 193.814 32.1517C194.486 31.0878 198.177 24.7611 193.804 20.4144C191.109 17.7384 190.552 15.0838 190.678 13.0704Z" fill="#592362"/>
<path d="M210.272 15.2954C211.864 13.6034 213.749 12.6181 215.405 12.0381C215.265 12.0354 215.137 12.0234 214.995 12.0234C212.216 12.0234 208.796 12.6434 206.82 15.2781C205.039 17.6541 204.423 20.0647 205.083 22.0661C205.409 23.0514 206.055 23.8661 206.891 24.4834C206.985 20.6807 208.113 17.5887 210.272 15.2954Z" fill="#592362"/>
<path d="M187.001 41.0794C190.039 39.1208 194.237 36.6074 199.183 34.1528C199.623 33.9088 200.112 33.6714 200.633 33.4488C215.424 26.3608 236.209 20.2741 252.892 30.3048C253.012 30.3688 253.1 30.4714 253.164 30.5928C257.115 31.6261 260.289 33.2181 262.457 34.5328C260.487 32.5048 258.428 30.7701 256.303 29.3021C255.073 28.7581 254.049 28.0248 253.375 27.4688C228.324 13.3088 195.487 32.2461 184.115 39.8141C185.084 40.2621 185.991 40.7461 186.831 41.2461C186.876 41.1834 186.931 41.1248 187.001 41.0794Z" fill="#592362"/>
<path d="M240.266 13.5233C237.482 14.6313 235.286 16.9526 233.716 20.4046C233.778 20.4673 233.82 20.5406 233.886 20.602C234.948 20.7966 240.45 21.5713 242.299 17.2526C243.374 14.7446 244.946 13.5166 246.372 12.926C244.684 12.67 242.474 12.6446 240.266 13.5233Z" fill="#592362"/>
<path d="M34.2329 22.3468C37.3035 21.6521 40.5395 22.2508 43.8649 24.1014C43.7569 23.0668 43.3822 22.0988 42.6995 21.3174C41.3102 19.7308 38.9169 19.0388 35.9702 19.3654C32.5155 19.7494 30.1849 22.6481 28.7969 25.1348C30.1395 23.9961 31.9529 22.8628 34.2329 22.3468Z" fill="#592362"/>
<path d="M43.8203 25.6158C40.5723 23.6572 37.4497 22.9865 34.527 23.6465C32.2057 24.1718 30.395 25.4465 29.1497 26.6118C29.575 26.5212 30.035 26.4625 30.5337 26.4625C31.8043 26.4625 33.3003 26.8225 34.959 27.8732C38.8897 30.3652 43.0403 26.6078 43.7923 25.8718C43.811 25.7852 43.8057 25.7012 43.8203 25.6158Z" fill="#592362"/>
<path d="M52.9805 159.985C53.7005 160.073 63.0085 161.129 67.0338 156.357C69.0085 154.019 69.4218 150.599 68.2712 146.177C66.1392 149.12 59.9605 156.003 50.8378 152.339C37.8565 147.132 25.7645 122.699 25.2298 79.2786C23.6925 104.416 24.9725 150.056 52.9805 159.985Z" fill="#592362"/>
<path d="M61.4532 172.244C68.7825 173.552 75.1705 174.692 77.8225 180.697C79.3878 178.42 82.6158 172.317 77.4012 166.412C74.5732 163.209 69.8652 163.275 64.8772 163.341C60.5252 163.401 56.0172 163.456 52.5465 161.247C25.1892 151.56 22.3838 110.455 23.5172 84.3479C21.2718 104.185 20.2012 133.064 29.4118 151.084C38.0972 168.077 51.0465 170.387 61.4532 172.244Z" fill="#592362"/>
<path d="M273.787 88.9736C274.367 115.079 270.392 152.166 244.555 161.266C244.483 161.291 244.408 161.304 244.333 161.304C244.297 161.304 244.265 161.278 244.229 161.271C240.765 163.451 236.279 163.4 231.943 163.34C231.228 163.331 230.521 163.322 229.821 163.322C225.647 163.322 221.843 163.667 219.419 166.412C214.204 172.318 217.432 178.42 218.997 180.696C221.649 174.691 228.037 173.552 235.368 172.244C245.772 170.387 258.723 168.078 267.409 151.084C275.925 134.419 275.651 108.472 273.787 88.9736Z" fill="#592362"/>
<path d="M243.91 159.977C243.993 159.963 244.077 159.971 244.157 159.991C273.958 149.443 273.517 98.4954 271.605 74.7634C271.882 121.011 259.406 146.953 245.983 152.338C236.855 156.005 230.681 149.121 228.549 146.177C227.398 150.601 227.813 154.022 229.787 156.361C233.963 161.306 243.81 159.989 243.91 159.977Z" fill="#592362"/>
<path d="M191.334 332.852C200.772 329.856 206.417 321.563 206.421 315.276C206.432 305.78 202.393 297.793 195.622 293.909C190.369 290.896 184.304 290.952 178.981 294.073C170.564 299.008 172.005 307.567 173.809 312.573C173.765 310.211 174.126 307.304 175.71 304.849C177.336 302.329 179.944 300.764 183.464 300.193C189.98 299.125 196.912 303.465 198.921 309.84C201.022 316.497 197.136 322.956 188.528 327.117C177.972 332.221 168.196 328.159 161.225 323.059C174.15 335.457 185.238 334.789 191.334 332.852Z" fill="#592362"/>
<path d="M219.487 300.619C216.015 300.831 213.444 303.91 213.419 303.94C213.239 304.155 212.95 304.238 212.682 304.147C212.419 304.054 212.24 303.807 212.238 303.527C212.095 292.795 205.594 284.918 194.844 282.454C186.076 280.44 175.015 282.786 170.834 291.148C165.451 301.915 169.662 309.787 172.811 313.654C172.23 312.124 171.643 310.207 171.34 308.103C170.375 301.41 172.784 296.16 178.307 292.923C184.052 289.558 190.604 289.492 196.287 292.754C203.476 296.876 207.766 305.298 207.755 315.276C207.75 322.043 201.756 330.942 191.738 334.123C189.726 334.762 187.194 335.274 184.251 335.274C176.452 335.274 165.766 331.672 154.19 317.314C158.746 326.126 170.531 342.939 193.883 342.184C215.176 341.527 222.932 327.146 225.279 320.992C228.404 312.8 227.648 305.411 225.111 303C223.322 301.3 221.416 300.495 219.487 300.619Z" fill="#592362"/>
<path d="M102.937 342.185C126.279 342.922 138.089 326.11 142.639 317.303C131.061 331.669 120.371 335.274 112.568 335.274C109.627 335.275 107.095 334.763 105.08 334.123C95.064 330.942 89.072 322.045 89.0653 315.277C89.0546 305.298 93.344 296.878 100.533 292.754C106.216 289.493 112.769 289.557 118.513 292.923C124.036 296.161 126.445 301.41 125.48 308.103C125.177 310.209 124.591 312.125 124.009 313.655C127.159 309.787 131.369 301.915 125.987 291.15C121.804 282.786 110.74 280.443 101.976 282.454C91.2266 284.918 84.7253 292.795 84.5826 303.527C84.5786 303.807 84.4013 304.054 84.1373 304.147C83.8706 304.237 83.5773 304.157 83.4013 303.941C83.376 303.91 80.804 300.831 77.3333 300.619C77.208 300.611 77.0826 300.607 76.9573 300.607C75.1453 300.607 73.3826 301.411 71.7093 303.001C69.172 305.411 68.416 312.801 71.5413 320.993C73.888 327.146 81.644 341.527 102.937 342.185Z" fill="#592362"/>
<path d="M117.838 294.074C112.52 290.954 106.453 290.895 101.198 293.91C94.4265 297.794 90.3878 305.78 90.3985 315.276C90.4038 321.563 96.0478 329.856 105.484 332.852C111.586 334.79 122.673 335.458 135.6 323.054C128.632 328.156 118.854 332.222 108.293 327.118C99.6851 322.956 95.7998 316.498 97.8985 309.84C99.9091 303.466 106.841 299.126 113.357 300.194C116.876 300.764 119.484 302.33 121.11 304.85C122.694 307.304 123.054 310.211 123.01 312.574C124.814 307.567 126.256 299.008 117.838 294.074Z" fill="#592362"/>
<path d="M227.911 333.918C230.217 332.969 235.706 330.998 241.483 330.998C246.667 330.998 252.085 332.585 255.639 337.929C256.729 334.911 258.717 326.958 251.399 322.743C251.133 322.59 251.005 322.274 251.093 321.978C251.115 321.895 253.423 313.746 249.019 306.985C246.066 302.451 240.806 299.531 233.373 298.29C236.139 302.635 244.233 316.839 236.273 323.21C230.093 328.153 228.383 332.102 227.911 333.918Z" fill="#592362"/>
<path d="M41.1784 337.929C48.6878 326.642 64.5038 332.107 68.8958 333.911C68.4051 332.078 66.6731 328.107 60.5491 323.209C52.5878 316.839 60.6798 302.634 63.4478 298.29C56.0131 299.53 50.7544 302.451 47.8011 306.983C43.3971 313.745 45.7051 321.895 45.7278 321.977C45.8158 322.273 45.6891 322.589 45.4224 322.742C38.0891 326.966 40.0864 334.917 41.1784 337.929Z" fill="#592362"/>
<path d="M192.792 405.231C189.364 408.754 187.609 412.499 187.604 416.377C187.598 419.745 188.912 422.59 190.122 424.502C189.996 422.489 190.556 419.835 193.249 417.159C197.621 412.814 193.932 406.487 193.26 405.425C193.104 405.351 192.948 405.294 192.792 405.231Z" fill="#592362"/>
<path d="M186.271 416.375C186.276 412.332 188 408.452 191.353 404.82C190.96 404.751 190.565 404.705 190.173 404.705C189.109 404.705 188.065 404.961 187.116 405.475C184.713 406.773 183.153 409.579 182.721 413.375C182.169 418.239 185.768 422.268 188.648 424.664C187.441 422.617 186.267 419.76 186.271 416.375Z" fill="#592362"/>
<path d="M165.862 391.316C164.598 391.451 163.382 391.915 162.346 392.66C160.549 393.955 159.443 395.967 159.313 398.18C159.267 398.816 158.107 413.584 148.661 417.376C148.581 417.408 148.495 417.424 148.411 417.424C148.327 417.424 148.243 417.408 148.163 417.376C138.631 413.548 137.518 398.339 137.507 398.186C137.378 395.967 136.273 393.955 134.474 392.66C133.439 391.915 132.223 391.451 130.958 391.316C130.685 391.288 130.458 391.094 130.386 390.828C130.314 390.563 130.411 390.28 130.633 390.118C132.713 388.582 134.035 387.343 134.391 386.999C136.787 384.686 137.326 381.042 135.698 378.136C135.046 376.974 134.09 376.011 132.933 375.351C132.717 375.228 132.587 374.994 132.598 374.743C132.609 374.495 132.757 374.272 132.983 374.167C138.77 371.487 143.765 366.443 147.829 359.172C148.063 358.75 148.757 358.75 148.993 359.172C153.055 366.442 158.05 371.486 163.837 374.167C164.063 374.272 164.213 374.495 164.223 374.743C164.233 374.994 164.105 375.228 163.889 375.351C162.73 376.011 161.775 376.974 161.123 378.136C159.495 381.042 160.033 384.686 162.429 386.999C162.785 387.343 164.109 388.582 166.187 390.118C166.409 390.28 166.506 390.563 166.435 390.828C166.362 391.094 166.135 391.288 165.862 391.316ZM167.058 382.2C166.839 381.991 166.791 381.66 166.939 381.396C167.087 381.13 167.393 380.999 167.689 381.075C181.338 384.619 191.114 378.572 195.714 371.739C199.441 366.203 200.042 359.926 197.209 356.12C192.346 349.586 184.447 349.57 180.355 350.088C185.061 352.095 188.594 356.946 188.217 361.492C188.011 363.966 186.225 369.722 174.077 369.722C156.875 369.722 150.331 347.048 148.41 338.051C146.49 347.048 139.946 369.722 122.743 369.722C110.595 369.722 108.809 363.966 108.603 361.492C108.226 356.947 111.755 352.098 116.459 350.091C112.361 349.575 104.463 349.599 99.6113 356.12C96.778 359.926 97.3806 366.202 101.106 371.739C105.705 378.572 115.482 384.616 129.131 381.075C129.423 381 129.733 381.131 129.881 381.396C130.029 381.66 129.981 381.991 129.762 382.2C129.262 382.683 117.993 393.386 105.317 391.11C108.715 394.379 117.683 401.3 130.014 397.967C130.071 397.952 130.129 397.944 130.187 397.944C130.326 397.944 130.462 397.987 130.577 398.07C130.739 398.187 130.841 398.371 130.853 398.571C130.866 398.792 132.35 420.743 148.41 424.419C164.483 420.739 165.954 398.792 165.966 398.571C165.978 398.371 166.079 398.187 166.243 398.07C166.406 397.952 166.611 397.914 166.806 397.967C179.161 401.306 188.119 394.378 191.509 391.11C178.822 393.38 167.558 382.683 167.058 382.2Z" fill="#592362"/>
<path d="M251.689 407.326C245.406 411.077 238.542 412.552 231.639 412.553C213.522 412.554 195.146 402.417 186.21 396.69C185.355 397.174 184.438 397.634 183.459 398.057C196.489 406.641 234.733 428.144 259.954 404.42C257.737 405.528 254.942 406.629 251.689 407.326Z" fill="#592362"/>
<path d="M207.898 412.252C207.816 412.28 207.746 412.328 207.664 412.359C207.625 416.148 208.633 419.181 210.684 421.361C212.314 423.095 214.329 424.007 215.968 424.489C214.925 423.349 214.02 421.573 214.108 418.845C214.257 414.196 208.914 412.527 207.898 412.252Z" fill="#592362"/>
<path d="M209.712 422.276C207.556 419.984 206.43 416.893 206.336 413.089C205.5 413.707 204.854 414.523 204.528 415.508C203.868 417.509 204.484 419.92 206.266 422.296C208.351 425.079 212.034 425.613 214.88 425.545C213.216 424.968 211.316 423.98 209.712 422.276Z" fill="#592362"/>
<path d="M85.5807 421.361C87.6314 419.181 88.6394 416.148 88.6007 412.357C88.5181 412.327 88.4487 412.279 88.3647 412.251C87.3207 412.525 82.0061 414.151 82.1581 418.845C82.2447 421.573 81.3394 423.351 80.2954 424.489C81.9354 424.007 83.9501 423.095 85.5807 421.361Z" fill="#592362"/>
<path d="M86.5521 422.276C84.9521 423.977 83.0548 424.965 81.3921 425.544C84.2414 425.609 87.9201 425.072 90.0001 422.296C91.7801 419.92 92.3974 417.509 91.7361 415.508C91.4108 414.522 90.7654 413.706 89.9281 413.089C89.8348 416.892 88.7081 419.984 86.5521 422.276Z" fill="#592362"/>
<path d="M109.818 396.494C106.818 398.429 102.667 400.906 97.7976 403.332C97.3029 403.613 96.7469 403.892 96.1443 404.146C86.9563 408.545 75.4629 412.553 64.0763 412.553C57.1376 412.553 50.2389 411.065 43.9283 407.269C43.8069 407.205 43.7189 407.098 43.6549 406.976C39.7096 405.944 36.5323 404.357 34.3643 403.044C36.3443 405.08 38.4096 406.821 40.5456 408.293C41.7643 408.836 42.7763 409.556 43.4443 410.106C68.4949 424.269 101.334 405.329 112.706 397.76C111.736 397.312 110.83 396.828 109.99 396.328C109.943 396.39 109.888 396.449 109.818 396.494Z" fill="#592362"/>
<path d="M109.995 416.378C109.999 419.749 108.795 422.631 107.579 424.691C110.464 422.295 114.097 418.254 113.544 413.374C113.111 409.578 111.552 406.773 109.149 405.474C107.851 404.773 106.377 404.562 104.912 404.819C108.267 408.453 109.989 412.334 109.995 416.378Z" fill="#592362"/>
<path d="M106.142 424.504C107.354 422.591 108.666 419.749 108.662 416.38C108.658 412.501 106.902 408.755 103.474 405.232C103.318 405.295 103.161 405.352 103.005 405.424C102.334 406.488 98.6433 412.813 103.017 417.16C105.71 419.836 106.269 422.491 106.142 424.504Z" fill="#592362"/>
<path d="M243.819 426.146C242.396 426.146 240.815 425.927 239.216 425.29C236.291 424.126 233.962 421.802 232.267 418.396C231.771 419.308 231.53 420.319 231.654 421.35C231.902 423.443 233.479 425.367 236.098 426.766C239.166 428.406 242.732 427.33 245.286 426.063C244.819 426.111 244.334 426.146 243.819 426.146Z" fill="#592362"/>
<path d="M262.588 415.228C261.754 415.417 260.906 415.512 260.05 415.512C257.751 415.512 255.379 414.834 252.958 413.486C253.066 414.517 253.44 415.48 254.12 416.257C255.51 417.845 257.903 418.541 260.848 418.209C264.304 417.826 266.634 414.928 268.022 412.441C266.68 413.58 264.867 414.712 262.588 415.228Z" fill="#592362"/>
<path d="M57.0482 425.29C55.4508 425.927 53.8668 426.146 52.4455 426.146C51.9348 426.146 51.4535 426.11 50.9895 426.063C53.5428 427.327 57.1068 428.401 60.1668 426.765C62.7868 425.367 64.3642 423.442 64.6122 421.35C64.7348 420.318 64.4948 419.309 63.9975 418.395C62.3028 421.802 59.9735 424.126 57.0482 425.29Z" fill="#592362"/>
<path d="M233.328 416.975C233.264 417.035 233.221 417.108 233.161 417.169C234.731 420.621 236.927 422.944 239.709 424.052C241.917 424.931 244.131 424.904 245.817 424.648C244.391 424.057 242.819 422.832 241.744 420.323C239.911 416.048 234.364 416.792 233.328 416.975Z" fill="#592362"/>
<path d="M253 411.957C256.248 413.917 259.373 414.59 262.295 413.928C264.613 413.402 266.421 412.132 267.667 410.966C266.156 411.286 264.167 411.162 261.861 409.702C257.931 407.212 253.781 410.968 253.028 411.702C253.009 411.788 253.015 411.872 253 411.957Z" fill="#592362"/>
<path d="M208.844 395.298C212.196 395.736 214.87 397.272 216.742 398.736C214.74 395.568 211.218 391.476 206.333 391.386C202.517 391.304 199.529 392.494 197.926 394.706C197.061 395.9 196.658 397.334 196.721 398.82C200.761 395.974 204.83 394.778 208.844 395.298Z" fill="#592362"/>
<path d="M87.4219 395.297C91.4312 394.777 95.5045 395.973 99.5445 398.821C99.6072 397.333 99.2045 395.9 98.3392 394.705C96.7352 392.493 93.7099 391.285 89.9312 391.385C85.0459 391.476 81.5245 395.568 79.5232 398.736C81.3939 397.272 84.0685 395.737 87.4219 395.297Z" fill="#592362"/>
<path d="M208.671 396.621C204.828 396.118 200.881 397.366 196.94 400.302C196.981 400.465 197.017 400.628 197.071 400.79C198.036 401.597 203.821 406.085 208.705 402.318C211.712 400.001 214.419 399.797 216.396 400.185C214.659 398.733 212.011 397.058 208.671 396.621Z" fill="#592362"/>
<path d="M273.046 386.805C272.607 384.373 271.551 382.606 269.908 381.554C266.971 379.671 263.099 380.639 263.06 380.651C262.788 380.722 262.503 380.613 262.344 380.383C262.186 380.153 262.188 379.846 262.351 379.618C268.58 370.879 267.992 360.681 260.778 352.341C254.894 345.539 244.588 340.891 236.271 345.162C225.566 350.665 224.308 359.502 224.564 364.483C224.998 362.906 225.658 361.013 226.656 359.137C229.836 353.167 234.883 350.357 241.25 351.011C247.874 351.69 253.195 355.513 255.852 361.499C259.216 369.078 257.696 378.403 251.79 386.447C248.851 390.449 242.632 393.473 235.595 393.473C233.043 393.474 230.383 393.075 227.731 392.182C220.415 389.718 208.55 381.794 207.382 356.413C205.848 366.205 205.415 386.721 224.695 399.951C242.26 412.005 257.018 404.991 262.546 401.417C269.91 396.655 273.667 390.249 273.046 386.805Z" fill="#592362"/>
<path d="M56.5548 424.051C59.3374 422.943 61.5334 420.622 63.1041 417.17C63.0428 417.107 63.0001 417.034 62.9348 416.973C61.8761 416.779 56.3708 416.003 54.5214 420.322C53.4468 422.83 51.8748 424.057 50.4468 424.647C52.1348 424.905 54.3454 424.93 56.5548 424.051Z" fill="#592362"/>
<path d="M99.1967 400.787C99.2487 400.626 99.2833 400.465 99.326 400.302C95.3847 397.366 91.438 396.117 87.594 396.621C84.2567 397.058 81.6087 398.731 79.8713 400.183C80.3607 400.087 80.8927 400.025 81.466 400.025C83.206 400.025 85.2993 400.575 87.5593 402.318C90.2073 404.361 93.1607 403.934 95.4473 403.007C96.03 402.729 96.6047 402.45 97.1673 402.169C98.178 401.59 98.9127 401.021 99.1967 400.787Z" fill="#592362"/>
<path d="M33.9713 413.926C36.89 414.592 40.0167 413.916 43.266 411.957C43.25 411.87 43.2567 411.788 43.238 411.7C43.1447 411.608 42.9993 411.469 42.814 411.304C41.7807 410.721 40.7673 410.065 39.762 409.37C38.1913 408.732 36.2847 408.51 34.4047 409.701C32.0993 411.162 30.1073 411.285 28.5967 410.964C29.842 412.129 31.6513 413.401 33.9713 413.926Z" fill="#592362"/>
<path d="M36.2162 415.512C35.3588 415.512 34.5122 415.417 33.6775 415.228C31.4015 414.713 29.5908 413.584 28.2495 412.448C29.6402 414.933 31.9695 417.826 35.4148 418.209C38.3668 418.541 40.7548 417.844 42.1442 416.258C42.8255 415.481 43.1988 414.517 43.3068 413.486C40.8868 414.834 38.5135 415.512 36.2162 415.512Z" fill="#592362"/>
<path d="M72.1251 399.951C91.4064 386.718 90.9731 366.202 89.4384 356.411C88.2704 381.794 76.4051 389.716 69.0904 392.182C66.4384 393.075 63.7771 393.472 61.2251 393.472C54.1864 393.474 47.9704 390.45 45.0317 386.447C39.1237 378.403 37.6051 369.078 40.9677 361.499C43.6251 355.512 48.9464 351.69 55.5704 351.011C61.9371 350.348 66.9851 353.167 70.1637 359.136C71.1624 361.012 71.8224 362.906 72.2571 364.482C72.5117 359.502 71.2557 350.663 60.5491 345.161C52.2357 340.89 41.9277 345.536 36.0424 352.34C28.8277 360.68 28.2397 370.878 34.4704 379.618C34.6317 379.846 34.6344 380.15 34.4771 380.38C34.3184 380.612 34.0344 380.72 33.7611 380.65C33.7411 380.646 32.7291 380.395 31.3557 380.395C30.0224 380.395 28.3451 380.631 26.9051 381.558C25.2651 382.61 24.2117 384.375 23.7744 386.804C23.1531 390.248 26.9104 396.654 34.2744 401.416C39.8037 404.988 54.5597 412.004 72.1251 399.951Z" fill="#592362"/>
<path d="M235.367 265.332C228.038 264.025 221.65 262.885 218.998 256.878C217.432 259.156 214.204 265.257 219.418 271.164C222.246 274.366 226.955 274.304 231.943 274.234C236.299 274.176 240.803 274.12 244.274 276.329C271.628 286.014 274.436 327.116 273.303 353.224C275.548 333.384 276.616 304.509 267.408 286.492C258.723 269.498 245.772 267.189 235.367 265.332Z" fill="#592362"/>
<path d="M243.838 277.589C243.11 277.497 233.81 276.448 229.785 281.217C227.81 283.556 227.398 286.976 228.549 291.397C230.25 289.048 234.53 284.187 240.832 284.187C242.422 284.187 244.144 284.497 245.982 285.236C258.964 290.444 271.056 314.876 271.59 358.296C273.128 333.159 271.848 287.517 243.838 277.589Z" fill="#592362"/>
<path d="M52.2655 276.31C52.3802 276.27 52.4975 276.274 52.6095 276.294C56.0708 274.124 60.5468 274.179 64.8775 274.234C69.8655 274.307 74.5722 274.366 77.4015 271.164C82.6295 265.242 79.3922 259.147 77.8255 256.876C75.1722 262.884 68.7842 264.024 61.4535 265.332C51.0468 267.188 38.0975 269.499 29.4108 286.492C20.8935 303.158 21.1682 329.108 23.0335 348.608C22.4535 322.503 26.4268 285.41 52.2655 276.31Z" fill="#592362"/>
<path d="M52.9101 277.599C52.8275 277.608 52.7461 277.601 52.6675 277.583C22.8621 288.127 23.3035 339.079 25.2155 362.811C24.9382 316.564 37.4141 290.623 50.8368 285.237C59.9648 281.575 66.1395 288.453 68.2715 291.397C69.4221 286.976 69.0075 283.556 67.0341 281.217C62.8661 276.276 53.0088 277.581 52.9101 277.599Z" fill="#592362"/>
<path d="M138.526 276.642C138.41 274.666 137.426 272.872 135.822 271.716C134.898 271.053 133.816 270.638 132.688 270.518C132.414 270.49 132.188 270.296 132.114 270.03C132.044 269.765 132.141 269.482 132.362 269.32C134.232 267.941 135.421 266.826 135.74 266.517C137.877 264.454 138.356 261.206 136.905 258.617C136.325 257.581 135.472 256.722 134.44 256.133C134.222 256.009 134.094 255.776 134.105 255.525C134.114 255.277 134.264 255.054 134.49 254.948C139.688 252.542 144.176 248.009 147.829 241.474C148.064 241.053 148.757 241.053 148.993 241.474C152.644 248.008 157.132 252.542 162.332 254.948C162.557 255.054 162.706 255.277 162.717 255.525C162.726 255.776 162.598 256.009 162.382 256.133C161.349 256.722 160.497 257.581 159.917 258.617C158.466 261.208 158.944 264.454 161.081 266.517C161.401 266.826 162.592 267.942 164.458 269.32C164.68 269.482 164.777 269.765 164.706 270.03C164.634 270.296 164.406 270.49 164.133 270.518C163.005 270.638 161.922 271.053 160.998 271.717C159.394 272.87 158.41 274.665 158.294 276.638C158.252 277.216 157.17 290.566 148.661 293.982C148.581 294.014 148.496 294.03 148.412 294.03C148.328 294.03 148.244 294.014 148.164 293.982C139.514 290.508 138.536 276.781 138.526 276.642ZM164.156 276.982C164.166 276.781 164.268 276.598 164.432 276.481C164.594 276.362 164.8 276.326 164.994 276.378C175.888 279.32 183.853 273.357 187.014 270.369C175.648 272.245 165.606 262.725 165.157 262.29C164.94 262.081 164.889 261.75 165.038 261.486C165.186 261.222 165.493 261.089 165.788 261.166C178.045 264.346 186.825 258.921 190.954 252.785C194.293 247.822 194.834 242.201 192.301 238.797C188.034 233.062 181.154 232.928 177.425 233.362C181.577 235.236 184.66 239.552 184.324 243.601C184.138 245.846 182.518 251.072 171.524 251.072C156.173 251.072 150.221 231.106 148.41 222.8C146.6 231.106 140.648 251.072 125.297 251.072C114.302 251.072 112.682 245.846 112.498 243.601C112.162 239.553 115.241 235.24 119.389 233.365C115.654 232.937 108.777 233.076 104.52 238.797C101.986 242.201 102.528 247.822 105.866 252.785C109.997 258.922 118.776 264.349 131.033 261.166C131.328 261.09 131.633 261.222 131.781 261.486C131.93 261.75 131.882 262.081 131.664 262.29C131.216 262.725 121.16 272.264 109.806 270.369C112.968 273.357 120.937 279.317 131.828 276.378C131.885 276.362 131.944 276.354 132 276.354C132.138 276.354 132.277 276.397 132.389 276.481C132.554 276.598 132.656 276.781 132.666 276.982C132.677 277.181 134.01 296.886 148.41 300.194C162.825 296.884 164.144 277.181 164.156 276.982Z" fill="#592362"/>
<path d="M147.828 196.101C144.177 189.567 139.689 185.033 134.489 182.625C134.263 182.519 134.115 182.297 134.104 182.047C134.093 181.798 134.223 181.565 134.439 181.441C135.471 180.853 136.323 179.994 136.904 178.958C138.356 176.367 137.876 173.119 135.74 171.058C135.42 170.749 134.232 169.634 132.361 168.254C132.14 168.091 132.043 167.809 132.115 167.543C132.188 167.278 132.413 167.083 132.688 167.055C133.816 166.935 134.9 166.522 135.821 165.858C137.425 164.703 138.411 162.909 138.525 160.935C138.568 160.359 139.649 147.007 148.16 143.593C148.32 143.527 148.497 143.527 148.657 143.593C157.245 147.042 158.284 160.791 158.295 160.93C158.411 162.909 159.395 164.703 160.999 165.858C161.92 166.522 163.004 166.935 164.133 167.055C164.407 167.083 164.633 167.278 164.705 167.543C164.777 167.809 164.68 168.091 164.459 168.254C162.591 169.633 161.401 170.749 161.08 171.058C158.944 173.119 158.465 176.367 159.916 178.957C160.496 179.994 161.349 180.853 162.381 181.441C162.597 181.565 162.727 181.798 162.716 182.047C162.705 182.297 162.557 182.519 162.331 182.625C157.133 185.031 152.644 189.566 148.992 196.101C148.875 196.311 148.651 196.442 148.411 196.442C148.168 196.442 147.945 196.311 147.828 196.101ZM171.523 186.502C182.519 186.502 184.137 191.727 184.323 193.974C184.659 198.021 181.579 202.334 177.429 204.21C181.167 204.638 188.044 204.498 192.3 198.778C194.835 195.374 194.293 189.751 190.955 184.79C186.825 178.654 178.047 173.234 165.788 176.407C165.493 176.485 165.187 176.351 165.037 176.087C164.889 175.823 164.939 175.493 165.156 175.282C165.605 174.85 175.639 165.313 187.015 167.206C183.851 164.215 175.885 158.254 164.993 161.197C164.803 161.249 164.593 161.213 164.431 161.094C164.267 160.977 164.167 160.793 164.155 160.593C164.143 160.393 162.809 140.689 148.411 137.379C133.996 140.691 132.677 160.393 132.667 160.593C132.655 160.793 132.553 160.977 132.389 161.094C132.227 161.211 132.023 161.247 131.827 161.197C120.916 158.247 112.957 164.217 109.8 167.207C121.16 165.307 131.213 174.849 131.663 175.282C131.881 175.493 131.929 175.823 131.781 176.087C131.633 176.351 131.328 176.483 131.032 176.407C118.772 173.23 109.996 178.654 105.867 184.789C102.527 189.751 101.985 195.374 104.52 198.778C108.785 204.511 115.659 204.646 119.396 204.211C115.244 202.338 112.161 198.023 112.497 193.974C112.683 191.727 114.301 186.502 125.297 186.502C140.647 186.502 146.599 206.469 148.411 214.775C150.221 206.469 156.173 186.502 171.523 186.502Z" fill="#592362"/>
<path d="M128.491 225.607C127.884 225.663 127.274 225.701 126.66 225.701C125.075 225.701 123.482 225.496 121.926 225.011C112.427 222.043 110.56 219.857 110.379 219.619C110.248 219.445 110.215 219.231 110.268 219.036C110.216 218.847 110.25 218.637 110.379 218.468C110.56 218.229 112.427 216.045 121.926 213.077C124.098 212.397 126.344 212.287 128.535 212.497C123.391 210.883 117.518 210.067 112.11 211.757C100.16 215.492 96.6323 218.36 95.9189 219.044C96.6323 219.727 100.16 222.596 112.11 226.329C117.504 228.016 123.358 227.212 128.491 225.607Z" fill="#592362"/>
<path d="M168.281 212.496C170.473 212.285 172.721 212.396 174.895 213.077C184.393 216.045 186.26 218.229 186.441 218.468C186.572 218.64 186.605 218.856 186.552 219.05C186.604 219.24 186.571 219.449 186.441 219.618C186.26 219.857 184.393 222.042 174.895 225.01C173.339 225.496 171.744 225.701 170.16 225.701C169.549 225.701 168.941 225.664 168.337 225.606C173.469 227.212 179.321 228.014 184.711 226.329C196.681 222.589 200.204 219.712 200.904 219.044C200.205 218.376 196.693 215.501 184.711 211.757C179.299 210.066 173.424 210.881 168.281 212.496Z" fill="#592362"/>
<path d="M45.5207 256.194C42.418 256.403 39.21 256.619 35.598 257.034C30.818 257.582 27.134 259.502 24.6514 262.742C21.4647 266.898 20.914 272.362 20.9247 275.74C22.9767 270.908 27.9927 262.082 37.0087 262.678C50.994 263.598 63.6234 257.968 71.3847 247.74C63.3887 254.964 55.938 255.494 45.5207 256.194Z" fill="#592362"/>
<path d="M23.5886 261.937C26.2993 258.395 30.2886 256.298 35.446 255.707C39.0886 255.29 42.458 255.063 45.4313 254.863C55.9886 254.153 63.41 253.653 71.5073 245.815C65.4326 249.278 53.8366 254.318 41.3713 251.437C28.1833 248.383 23.0753 240.634 21.25 236.541C20.8926 240.305 20.9953 247.239 25.7753 251.118C25.958 251.266 26.0486 251.501 26.014 251.734C25.9793 251.966 25.8233 252.165 25.606 252.254C25.5593 252.273 20.942 254.205 18.81 259.603C17.1313 263.853 17.4033 269.047 19.578 275.067C19.6366 271.485 20.3526 266.162 23.5886 261.937Z" fill="#592362"/>
<path d="M271.216 252.255C270.997 252.167 270.841 251.969 270.805 251.735C270.771 251.503 270.861 251.268 271.045 251.117C275.825 247.239 275.928 240.305 275.571 236.541C273.744 240.635 268.636 248.384 255.449 251.437C242.983 254.319 231.388 249.28 225.313 245.817C233.411 253.653 240.832 254.153 251.389 254.864C254.361 255.063 257.732 255.289 261.375 255.708C266.531 256.299 270.521 258.395 273.233 261.937C276.467 266.163 277.184 271.484 277.243 275.065C279.421 269.035 279.689 263.832 278 259.577C275.855 254.175 271.261 252.273 271.216 252.255Z" fill="#592362"/>
<path d="M272.169 262.742C269.687 259.502 266.003 257.582 261.223 257.034C257.611 256.619 254.403 256.403 251.3 256.194C240.881 255.492 233.432 254.964 225.435 247.742C233.199 257.968 245.833 263.594 259.811 262.678C260.103 262.659 260.389 262.65 260.672 262.65C269.169 262.65 273.913 271.06 275.896 275.736C275.907 272.358 275.355 266.896 272.169 262.742Z" fill="#592362"/>
</svg>
