<svg width="296" height="456" viewBox="0 0 296 456" fill="none" xmlns="http://www.w3.org/2000/svg">
<mask id="mask0_2878_3827" style="mask-type:alpha" maskUnits="userSpaceOnUse" x="5" y="5" width="287" height="447">
<path d="M291.16 12.6292V443.47C291.16 443.732 291.02 443.973 290.795 444.091C288.075 445.522 285.823 447.876 284.455 450.716C284.343 450.952 284.111 451.1 283.859 451.1H12.3013C12.0493 451.1 11.82 450.952 11.7053 450.716C10.3387 447.876 8.08666 445.522 5.36666 444.091C5.14266 443.973 5 443.732 5 443.47V12.6292C5 12.3659 5.14266 12.1249 5.36666 12.0065C8.08666 10.577 10.3387 8.22508 11.7053 5.38418C11.82 5.14872 12.0493 4.99962 12.3013 4.99962H283.859C284.111 4.99962 284.343 5.14872 284.455 5.38418C285.823 8.22508 288.076 10.577 290.795 12.0065C291.02 12.1249 291.16 12.3659 291.16 12.6292Z" fill="#34CEA3"/>
</mask>
<g mask="url(#mask0_2878_3827)">
<circle cx="90.0938" cy="-1.59375" r="19.1562" fill="#2A839E"/>
<circle cx="90.0938" cy="151.656" r="19.1562" fill="#2A839E"/>
<circle cx="90.0938" cy="304.906" r="19.1562" fill="#2A839E"/>
<circle cx="90.0938" cy="75.0312" r="19.1562" fill="#2A839E"/>
<circle cx="90.0938" cy="228.281" r="19.1562" fill="#2A839E"/>
<circle cx="90.0938" cy="458.156" r="19.1562" fill="#2A839E"/>
<circle cx="90.0938" cy="381.531" r="19.1562" fill="#2A839E"/>
<circle cx="90.0938" cy="36.7188" r="19.1562" fill="#2A839E"/>
<circle cx="90.0938" cy="189.969" r="19.1562" fill="#2A839E"/>
<circle cx="90.0938" cy="343.219" r="19.1562" fill="#2A839E"/>
<circle cx="90.0938" cy="113.344" r="19.1562" fill="#2A839E"/>
<circle cx="90.0938" cy="266.594" r="19.1562" fill="#2A839E"/>
<circle cx="90.0938" cy="419.844" r="19.1562" fill="#2A839E"/>
<circle cx="205.031" cy="-1.59375" r="19.1562" fill="#2A839E"/>
<circle cx="205.031" cy="151.656" r="19.1562" fill="#2A839E"/>
<circle cx="205.031" cy="304.906" r="19.1562" fill="#2A839E"/>
<circle cx="205.031" cy="75.0312" r="19.1562" fill="#2A839E"/>
<circle cx="205.031" cy="228.281" r="19.1562" fill="#2A839E"/>
<circle cx="205.031" cy="458.156" r="19.1562" fill="#2A839E"/>
<circle cx="205.031" cy="381.531" r="19.1562" fill="#2A839E"/>
<circle cx="205.031" cy="36.7188" r="19.1562" fill="#2A839E"/>
<circle cx="205.031" cy="189.969" r="19.1562" fill="#2A839E"/>
<circle cx="205.031" cy="343.219" r="19.1562" fill="#2A839E"/>
<circle cx="205.031" cy="113.344" r="19.1562" fill="#2A839E"/>
<circle cx="205.031" cy="266.594" r="19.1562" fill="#2A839E"/>
<circle cx="205.031" cy="419.844" r="19.1562" fill="#2A839E"/>
<circle cx="13.4688" cy="-1.59375" r="19.1562" fill="#2A839E"/>
<circle cx="13.4688" cy="151.656" r="19.1562" fill="#2A839E"/>
<circle cx="13.4688" cy="304.906" r="19.1562" fill="#2A839E"/>
<circle cx="13.4688" cy="75.0312" r="19.1562" fill="#2A839E"/>
<circle cx="13.4688" cy="228.281" r="19.1562" fill="#2A839E"/>
<circle cx="13.4688" cy="458.156" r="19.1562" fill="#2A839E"/>
<circle cx="13.4688" cy="381.531" r="19.1562" fill="#2A839E"/>
<circle cx="13.4688" cy="36.7188" r="19.1562" fill="#2A839E"/>
<circle cx="13.4688" cy="189.969" r="19.1562" fill="#2A839E"/>
<circle cx="13.4688" cy="343.219" r="19.1562" fill="#2A839E"/>
<circle cx="13.4688" cy="113.344" r="19.1562" fill="#2A839E"/>
<circle cx="13.4688" cy="266.594" r="19.1562" fill="#2A839E"/>
<circle cx="13.4688" cy="419.844" r="19.1562" fill="#2A839E"/>
<circle cx="128.406" cy="-1.59375" r="19.1562" fill="#2A839E"/>
<circle cx="128.406" cy="151.656" r="19.1562" fill="#2A839E"/>
<circle cx="128.406" cy="304.906" r="19.1562" fill="#2A839E"/>
<circle cx="128.406" cy="75.0312" r="19.1562" fill="#2A839E"/>
<circle cx="128.406" cy="228.281" r="19.1562" fill="#2A839E"/>
<circle cx="128.406" cy="458.156" r="19.1562" fill="#2A839E"/>
<circle cx="128.406" cy="381.531" r="19.1562" fill="#2A839E"/>
<circle cx="128.406" cy="36.7188" r="19.1562" fill="#2A839E"/>
<circle cx="128.406" cy="189.969" r="19.1562" fill="#2A839E"/>
<circle cx="128.406" cy="343.219" r="19.1562" fill="#2A839E"/>
<circle cx="128.406" cy="113.344" r="19.1562" fill="#2A839E"/>
<circle cx="128.406" cy="266.594" r="19.1562" fill="#2A839E"/>
<circle cx="128.406" cy="419.844" r="19.1562" fill="#2A839E"/>
<circle cx="243.344" cy="-1.59375" r="19.1562" fill="#2A839E"/>
<circle cx="243.344" cy="151.656" r="19.1562" fill="#2A839E"/>
<circle cx="243.344" cy="304.906" r="19.1562" fill="#2A839E"/>
<circle cx="243.344" cy="75.0312" r="19.1562" fill="#2A839E"/>
<circle cx="243.344" cy="228.281" r="19.1562" fill="#2A839E"/>
<circle cx="243.344" cy="458.156" r="19.1562" fill="#2A839E"/>
<circle cx="243.344" cy="381.531" r="19.1562" fill="#2A839E"/>
<circle cx="243.344" cy="36.7188" r="19.1562" fill="#2A839E"/>
<circle cx="243.344" cy="189.969" r="19.1562" fill="#2A839E"/>
<circle cx="243.344" cy="343.219" r="19.1562" fill="#2A839E"/>
<circle cx="243.344" cy="113.344" r="19.1562" fill="#2A839E"/>
<circle cx="243.344" cy="266.594" r="19.1562" fill="#2A839E"/>
<circle cx="243.344" cy="419.844" r="19.1562" fill="#2A839E"/>
<circle cx="51.7812" cy="-1.59375" r="19.1562" fill="#2A839E"/>
<circle cx="51.7812" cy="151.656" r="19.1562" fill="#2A839E"/>
<circle cx="51.7812" cy="304.906" r="19.1562" fill="#2A839E"/>
<circle cx="51.7812" cy="75.0312" r="19.1562" fill="#2A839E"/>
<circle cx="51.7812" cy="228.281" r="19.1562" fill="#2A839E"/>
<circle cx="51.7812" cy="458.156" r="19.1562" fill="#2A839E"/>
<circle cx="51.7812" cy="381.531" r="19.1562" fill="#2A839E"/>
<circle cx="51.7812" cy="36.7188" r="19.1562" fill="#2A839E"/>
<circle cx="51.7812" cy="189.969" r="19.1562" fill="#2A839E"/>
<circle cx="51.7812" cy="343.219" r="19.1562" fill="#2A839E"/>
<circle cx="51.7812" cy="113.344" r="19.1562" fill="#2A839E"/>
<circle cx="51.7812" cy="266.594" r="19.1562" fill="#2A839E"/>
<circle cx="51.7812" cy="419.844" r="19.1562" fill="#2A839E"/>
<circle cx="166.719" cy="-1.59375" r="19.1562" fill="#2A839E"/>
<circle cx="166.719" cy="151.656" r="19.1562" fill="#2A839E"/>
<circle cx="166.719" cy="304.906" r="19.1562" fill="#2A839E"/>
<circle cx="166.719" cy="75.0312" r="19.1562" fill="#2A839E"/>
<circle cx="166.719" cy="228.281" r="19.1562" fill="#2A839E"/>
<circle cx="166.719" cy="458.156" r="19.1562" fill="#2A839E"/>
<circle cx="166.719" cy="381.531" r="19.1562" fill="#2A839E"/>
<circle cx="166.719" cy="36.7188" r="19.1562" fill="#2A839E"/>
<circle cx="166.719" cy="189.969" r="19.1562" fill="#2A839E"/>
<circle cx="166.719" cy="343.219" r="19.1562" fill="#2A839E"/>
<circle cx="166.719" cy="113.344" r="19.1562" fill="#2A839E"/>
<circle cx="166.719" cy="266.594" r="19.1562" fill="#2A839E"/>
<circle cx="166.719" cy="419.844" r="19.1562" fill="#2A839E"/>
<circle cx="281.656" cy="-1.59375" r="19.1562" fill="#2A839E"/>
<circle cx="281.656" cy="151.656" r="19.1562" fill="#2A839E"/>
<circle cx="281.656" cy="304.906" r="19.1562" fill="#2A839E"/>
<circle cx="281.656" cy="75.0312" r="19.1562" fill="#2A839E"/>
<circle cx="281.656" cy="228.281" r="19.1562" fill="#2A839E"/>
<circle cx="281.656" cy="458.156" r="19.1562" fill="#2A839E"/>
<circle cx="281.656" cy="381.531" r="19.1562" fill="#2A839E"/>
<circle cx="281.656" cy="36.7188" r="19.1562" fill="#2A839E"/>
<circle cx="281.656" cy="189.969" r="19.1562" fill="#2A839E"/>
<circle cx="281.656" cy="343.219" r="19.1562" fill="#2A839E"/>
<circle cx="281.656" cy="113.344" r="19.1562" fill="#2A839E"/>
<circle cx="281.656" cy="266.594" r="19.1562" fill="#2A839E"/>
<circle cx="281.656" cy="419.844" r="19.1562" fill="#2A839E"/>
</g>
<path d="M3 10.963C6.66129 9.7347 9.49472 6.72697 10.6385 3H285.362C286.507 6.726 289.339 9.73423 293 10.9628V445.037C289.339 446.266 286.507 449.275 285.362 453H10.6383C9.4945 449.274 6.66125 446.266 3 445.037V10.963Z" stroke="#2A839E" stroke-width="6"/>
</svg>
