<?xml version="1.0" encoding="utf-8"?>

<!DOCTYPE svg PUBLIC "-//W3C//DTD SVG 1.1//EN" "http://www.w3.org/Graphics/SVG/1.1/DTD/svg11.dtd">
<svg version="1.1" id="Layer_1" xmlns="http://www.w3.org/2000/svg" xmlns:xlink="http://www.w3.org/1999/xlink" x="0px" y="0px"
	 viewBox="0 0 2560 1600" enable-background="new 0 0 2560 1600" xml:space="preserve">
<pattern  width="200" height="200" patternUnits="userSpaceOnUse" id="New_Pattern" viewBox="0 -200 200 200" overflow="visible">
	<g>
		<polygon fill="none" points="0,-200 200,-200 200,0 0,0 		"/>
		<g id="layer1_4_" transform="translate(-251.59 -314.95)">
			<path id="path3807_4_" d="M314.278,118.984l-12.472,12.472l-11.039-11.045v-5.461l11.014,11.019l10.869-11.014l38.94-0.004
				l38.94,0.004l10.869,11.014l11.014-11.019v5.461l-11.039,11.045l-12.472-12.472H314.278z M447.556,177.638l-12.472-12.472
				l11.045-11.039h5.461l-11.019,11.014l11.014,10.869l0.004,38.94l-0.004,38.94l-11.014,10.869l11.019,11.014h-5.461
				l-11.045-11.039l12.472-12.472V177.638z M388.902,310.916l12.472-12.472l11.039,11.045v5.461l-11.014-11.019l-10.869,11.014
				l-38.94,0.004l-38.94-0.004l-10.869-11.014l-11.014,11.019v-5.461l11.039-11.045l12.472,12.472H388.902z M255.624,252.262
				l12.472,12.472l-11.045,11.039h-5.461l11.019-11.014l-11.014-10.869l-0.004-38.94l0.004-38.94l11.014-10.869l-11.019-11.014
				h5.461l11.045,11.039l-12.472,12.472V252.262z M338.242,195.6h-5.365l10.952-10.952l-10.936-10.931v-20.408h-20.245
				l-10.931-10.936l-10.952,10.952v-5.365l25.207-25.187l35.618,0.161l35.618-0.161l25.207,25.187v5.365l-10.952-10.952
				l-10.931,10.936h-20.245v20.408l-10.936,10.931l10.952,10.952h-5.365l-13.348-13.359L338.242,195.6z M370.94,201.602v-5.365
				l10.952,10.952l10.931-10.936h20.408v-20.245l10.936-10.931l-10.952-10.952h5.365l25.187,25.207l-0.161,35.618l0.161,35.618
				l-25.187,25.207h-5.365l10.952-10.952l-10.936-10.931v-20.245h-20.408l-10.931-10.936l-10.952,10.952v-5.365l13.359-13.348
				L370.94,201.602z M364.938,234.3h5.365l-10.952,10.952l10.936,10.931v20.408h20.245l10.931,10.936l10.952-10.952v5.365
				l-25.207,25.187l-35.618-0.161l-35.618,0.161l-25.207-25.187v-5.365l10.952,10.952l10.931-10.936h20.245v-20.408l10.936-10.931
				L332.877,234.3h5.365l13.348,13.359L364.938,234.3z M332.24,228.298v5.365l-10.952-10.952l-10.931,10.936h-20.408v20.245
				l-10.936,10.931l10.952,10.952H284.6l-25.187-25.207l0.161-35.618l-0.161-35.618l25.187-25.207h5.365l-10.952,10.952
				l10.936,10.931v20.245h20.408l10.931,10.936l10.952-10.952v5.365l-13.359,13.348L332.24,228.298z M343.709,195.601l7.881-7.881
				l7.881,7.881H343.709z M370.939,207.069l7.881,7.881l-7.881,7.881V207.069z M359.471,234.299l-7.881,7.881l-7.881-7.881H359.471z
				 M332.241,222.831l-7.881-7.881l7.881-7.881V222.831z M353.85,179.148l2.744,2.744l9.803-9.802l0.145-22.669h22.361l9.802-9.803
				l-2.744-2.744l-8.553,8.555l-24.942,0.079l-0.062,25.088L353.85,179.148L353.85,179.148z M315.788,212.69l2.744-2.744
				l-9.802-9.803l-22.669-0.145v-22.361l-9.803-9.802l-2.744,2.744l8.555,8.553l0.079,24.942l25.088,0.062L315.788,212.69
				L315.788,212.69z M349.33,250.752l-2.744-2.744l-9.803,9.802l-0.145,22.669h-22.361l-9.802,9.803l2.744,2.744l8.553-8.555
				l24.942-0.079l0.062-25.088L349.33,250.752L349.33,250.752z M387.392,217.21l-2.744,2.744l9.802,9.803l22.669,0.145v22.361
				l9.803,9.802l2.744-2.744l-8.555-8.553l-0.079-24.942l-25.088-0.062L387.392,217.21L387.392,217.21z M387.392,212.69l8.553-8.555
				l25.088-0.062l0.079-24.942l8.555-8.553l-2.744-2.744l-9.803,9.802v22.361l-22.669,0.145l-9.802,9.803L387.392,212.69
				L387.392,212.69z M349.33,179.148l-8.555-8.553l-0.062-25.088l-24.942-0.079l-8.553-8.555l-2.744,2.744l9.802,9.803h22.361
				l0.145,22.669l9.803,9.802L349.33,179.148L349.33,179.148z M315.788,217.21l-8.553,8.555l-25.088,0.062l-0.079,24.942
				l-8.555,8.553l2.744,2.744l9.803-9.802v-22.361l22.669-0.145l9.802-9.803L315.788,217.21L315.788,217.21z M353.85,250.752
				l8.555,8.553l0.062,25.088l24.942,0.079l8.553,8.555l2.744-2.744l-9.802-9.803h-22.361l-0.145-22.669l-9.803-9.802
				L353.85,250.752L353.85,250.752z M412.414,125.916v16.579l-8.29-8.29L412.414,125.916z M262.556,154.126h16.579l-8.29,8.29
				L262.556,154.126z M290.766,303.984v-16.579l8.29,8.29L290.766,303.984z M440.624,275.774h-16.579l8.29-8.29L440.624,275.774z
				 M432.334,162.415l-8.29-8.29h16.579L432.334,162.415z M299.055,134.206l-8.29,8.29v-16.579L299.055,134.206z M270.846,267.485
				l8.29,8.29h-16.579L270.846,267.485z M404.125,295.694l8.29-8.29v16.579L404.125,295.694z"/>
		</g>
	</g>
</pattern>
<rect fill="url(#New_Pattern)" width="2560" height="1600"/>
</svg>
