<svg width="800" height="800" viewBox="0 0 800 800" fill="none" xmlns="http://www.w3.org/2000/svg">
<g filter="url(#filter0_d_2879_3828)">
<path d="M696 288.509V511.492C696 548.004 676.418 581.908 644.761 600.49L450.903 712.308C419.246 730.564 380.082 730.564 348.099 712.308L154.239 600.49C122.582 582.234 103 548.33 103 511.492V288.509C103 251.997 122.582 218.092 154.239 199.51L348.099 87.692C379.756 69.436 418.919 69.436 450.903 87.692L644.761 199.51C676.418 218.092 696 251.671 696 288.509Z" fill="#EED7FF"/>
<path d="M161.733 587.496L161.732 587.496C134.742 571.931 118 542.993 118 511.492V288.509C118 257.398 134.69 228.4 161.786 212.473L355.592 100.686C355.593 100.686 355.593 100.686 355.593 100.685C382.58 85.1232 416.047 85.0802 443.44 100.704C443.449 100.709 443.458 100.714 443.467 100.719L637.168 212.446C637.184 212.455 637.2 212.464 637.215 212.474C664.334 228.414 681 257.099 681 288.509V511.492C681 542.604 664.309 571.602 637.211 587.528C637.197 587.537 637.182 587.545 637.168 587.554L443.409 699.314C443.409 699.314 443.408 699.314 443.408 699.315C416.422 714.876 382.958 714.92 355.565 699.298C355.555 699.293 355.545 699.287 355.535 699.281L161.733 587.496Z" stroke="#CAB0DE" stroke-width="30"/>
</g>
<path d="M156.84 592.01L156.838 592.01C129.173 576.038 112.005 546.339 112.005 514V286.001C112.005 254.062 129.12 224.302 156.891 207.96C156.906 207.951 156.922 207.942 156.938 207.932L354.84 93.6575C354.84 93.6573 354.841 93.6571 354.841 93.6569C382.5 77.6895 416.795 77.6457 444.868 93.6733C444.878 93.6791 444.888 93.6849 444.898 93.6906L642.741 207.932C642.756 207.942 642.772 207.951 642.787 207.96C670.581 224.314 687.673 253.755 687.673 286.001V514C687.673 545.94 670.558 575.7 642.786 592.041C642.771 592.05 642.756 592.059 642.741 592.068L444.84 706.343C444.84 706.343 444.84 706.344 444.839 706.344C417.179 722.312 382.883 722.355 354.809 706.326C354.8 706.32 354.791 706.315 354.782 706.31L156.84 592.01Z" fill="#EED7FF" stroke="#CAB0DE" stroke-width="30"/>
<path d="M399.997 400.004C442.89 400.004 477.663 365.23 477.663 322.335C477.663 279.441 442.89 244.67 399.997 244.67C357.103 244.67 322.331 279.441 322.331 322.335C322.331 365.23 357.103 400.004 399.997 400.004Z" fill="#4D3F71"/>
<path d="M489.307 555.337C516.307 555.337 531.973 525.337 516.973 503.003C494.307 469.337 450.306 446.67 399.973 446.67C349.64 446.67 305.64 469.337 282.973 503.003C267.973 525.337 283.64 555.337 310.64 555.337H489.307Z" fill="#4D3F71"/>
<defs>
<filter id="filter0_d_2879_3828" x="53" y="36" width="693" height="752" filterUnits="userSpaceOnUse" color-interpolation-filters="sRGB">
<feFlood flood-opacity="0" result="BackgroundImageFix"/>
<feColorMatrix in="SourceAlpha" type="matrix" values="0 0 0 0 0 0 0 0 0 0 0 0 0 0 0 0 0 0 127 0" result="hardAlpha"/>
<feOffset dy="12"/>
<feGaussianBlur stdDeviation="25"/>
<feComposite in2="hardAlpha" operator="out"/>
<feColorMatrix type="matrix" values="0 0 0 0 0.301961 0 0 0 0 0.247059 0 0 0 0 0.443137 0 0 0 0.55 0"/>
<feBlend mode="normal" in2="BackgroundImageFix" result="effect1_dropShadow_2879_3828"/>
<feBlend mode="normal" in="SourceGraphic" in2="effect1_dropShadow_2879_3828" result="shape"/>
</filter>
</defs>
</svg>
